<svg width="20" height="20" viewBox="0 0 20 20" fill="none" xmlns="http://www.w3.org/2000/svg">
<path d="M2.34201 15.681C1.87525 16.1477 1.87525 16.9045 2.34201 17.3713C2.80877 17.838 3.56553 17.838 4.03229 17.3713L9.56158 11.842L15.0909 17.3713C15.5576 17.838 16.3144 17.838 16.7811 17.3713C17.2479 16.9045 17.2479 16.1477 16.7811 15.681L11.2519 10.1517L16.7811 4.62237C17.2479 4.15561 17.2479 3.39885 16.7811 2.93209C16.3144 2.46534 15.5576 2.46534 15.0909 2.93209L9.56158 8.46139L4.03229 2.93209C3.56553 2.46534 2.80877 2.46534 2.34201 2.93209C1.87525 3.39885 1.87525 4.15561 2.34201 4.62237L7.8713 10.1517L2.34201 15.681Z" fill="#0D0F14"/>
</svg>
