<svg width="20" height="20" viewBox="0 0 20 20" fill="none" xmlns="http://www.w3.org/2000/svg">
<g clip-path="url(#clip0_52_682)">
<path d="M10 20C15.5234 20 20 15.5234 20 10C20 4.47656 15.5234 0 10 0C4.47656 0 0 4.47656 0 10C0 15.5234 4.47656 20 10 20ZM5.06641 12.7813L6.18359 12.2227C6.52344 12.9062 7.79687 14.3789 10 14.3789C12.2031 14.3789 13.4727 12.9062 13.8164 12.2227L14.9336 12.7813C14.4414 13.7617 12.7969 15.625 10 15.625C7.20313 15.625 5.55859 13.7617 5.06641 12.7813ZM8.14062 8.125C8.14062 8.81641 7.58203 9.375 6.89062 9.375C6.19922 9.375 5.64062 8.81641 5.64062 8.125C5.64062 7.43359 6.19922 6.875 6.89062 6.875C7.58203 6.875 8.14062 7.43359 8.14062 8.125ZM13.1406 9.375C12.4492 9.375 11.8906 8.81641 11.8906 8.125C11.8906 7.43359 12.4492 6.875 13.1406 6.875C13.832 6.875 14.3906 7.43359 14.3906 8.125C14.3906 8.81641 13.832 9.375 13.1406 9.375Z" fill="#70CFAA"/>
</g>
<defs>
<clipPath id="clip0_52_682">
<rect width="20" height="20" fill="white"/>
</clipPath>
</defs>
</svg>
