<svg width="23" height="20" viewBox="0 0 23 20" fill="none" xmlns="http://www.w3.org/2000/svg">
<g clip-path="url(#clip0_52_714)">
<path d="M21.1679 11.2695C21.2226 10.8516 21.25 10.4297 21.25 10C21.25 4.47656 16.7734 0 11.25 0C5.72652 0 1.24996 4.47656 1.24996 10C1.24996 10.4297 1.2773 10.8555 1.33199 11.2734C2.13668 11.1758 2.9609 11.4102 3.5898 11.9336C5.8359 13.8086 7.01949 16.543 7.41793 19.2383C8.59761 19.7305 9.89058 20 11.25 20C12.6093 20 13.9062 19.7305 15.0859 19.2383C15.4843 16.543 16.664 13.8086 18.914 11.9336C19.5429 11.4102 20.3671 11.1758 21.1718 11.2695H21.1679ZM11.25 12.5C12.2851 12.5 13.125 13.3398 13.125 14.375V15.625C13.125 16.6602 12.2851 17.5 11.25 17.5C10.2148 17.5 9.37496 16.6602 9.37496 15.625V14.375C9.37496 13.3398 10.2148 12.5 11.25 12.5ZM9.42965 9.49219C8.55074 10.9336 6.97652 11.6289 5.91011 11.0469C4.84371 10.4648 4.69527 8.82422 5.57027 7.38672C6.44527 5.94922 8.0234 5.25 9.0898 5.83203C10.1562 6.41406 10.3046 8.05469 9.42965 9.49219ZM16.5898 11.0469C15.5234 11.6289 13.9492 10.9336 13.0703 9.49219C12.1914 8.05078 12.3437 6.41406 13.4101 5.83203C14.4765 5.25 16.0507 5.94531 16.9296 7.38672C17.8086 8.82813 17.6562 10.4648 16.5898 11.0469V11.0469ZM2.78902 12.8945C2.23043 12.4297 1.40621 12.3594 0.765583 12.7734C-0.0195728 13.2812 -0.234417 14.3164 0.277302 15.0859C1.30855 16.6484 1.98043 18.0273 1.9648 19.9961L6.24996 20C5.97652 17.3281 4.89058 14.6484 2.78511 12.8945H2.78902ZM21.7382 12.7734C21.0976 12.3594 20.2695 12.4297 19.7148 12.8945C17.6093 14.6484 16.5234 17.3281 16.25 20H20.539C20.5234 18.0273 21.1914 16.6523 22.2265 15.0898C22.7382 14.3164 22.5234 13.2812 21.7421 12.7734H21.7382Z" fill="#F84F68"/>
</g>
<defs>
<clipPath id="clip0_52_714">
<rect width="22.5" height="20" fill="white"/>
</clipPath>
</defs>
</svg>
