<svg width="16" height="18" viewBox="0 0 16 18" fill="none" xmlns="http://www.w3.org/2000/svg">
<g clip-path="url(#clip0_86_564)">
<path d="M5.625 14.0625C5.625 14.3719 5.37188 14.625 5.0625 14.625C4.75312 14.625 4.5 14.3719 4.5 14.0625V6.75C4.5 6.44062 4.75312 6.1875 5.0625 6.1875C5.37188 6.1875 5.625 6.44062 5.625 6.75V14.0625ZM8.4375 14.0625C8.4375 14.3719 8.18438 14.625 7.875 14.625C7.56562 14.625 7.3125 14.3719 7.3125 14.0625V6.75C7.3125 6.44062 7.56562 6.1875 7.875 6.1875C8.18438 6.1875 8.4375 6.44062 8.4375 6.75V14.0625ZM11.25 14.0625C11.25 14.3719 10.9969 14.625 10.6875 14.625C10.3781 14.625 10.125 14.3719 10.125 14.0625V6.75C10.125 6.44062 10.3781 6.1875 10.6875 6.1875C10.9969 6.1875 11.25 6.44062 11.25 6.75V14.0625ZM11.1621 0.876797L12.4523 2.8125H14.9062C15.3738 2.8125 15.75 3.19043 15.75 3.65625C15.75 4.12383 15.3738 4.5 14.9062 4.5H14.625V15.1875C14.625 16.7414 13.3664 18 11.8125 18H3.9375C2.3843 18 1.125 16.7414 1.125 15.1875V4.5H0.84375C0.37793 4.5 0 4.12383 0 3.65625C0 3.19043 0.37793 2.8125 0.84375 2.8125H3.29836L4.58789 0.876797C4.95352 0.328957 5.56875 0 6.22617 0H9.52383C10.1812 0 10.7965 0.328992 11.1621 0.876797ZM5.32617 2.8125H10.4238L9.75586 1.81266C9.70312 1.73461 9.61523 1.6875 9.52383 1.6875H6.22617C6.13477 1.6875 6.01523 1.73461 5.99414 1.81266L5.32617 2.8125ZM2.8125 15.1875C2.8125 15.8098 3.31629 16.3125 3.9375 16.3125H11.8125C12.4348 16.3125 12.9375 15.8098 12.9375 15.1875V4.5H2.8125V15.1875Z" fill="#FF0035"/>
</g>
<defs>
<clipPath id="clip0_86_564">
<rect width="15.75" height="18" fill="white"/>
</clipPath>
</defs>
</svg>
