<svg width="20" height="20" viewBox="0 0 20 20" fill="none" xmlns="http://www.w3.org/2000/svg">
<g clip-path="url(#clip0_52_686)">
<path d="M10 20C15.5234 20 20 15.5234 20 10C20 4.47656 15.5234 0 10 0C4.47656 0 0 4.47656 0 10C0 15.5234 4.47656 20 10 20ZM6.89062 9.375C6.19922 9.375 5.64062 8.81641 5.64062 8.125C5.64062 7.43359 6.19922 6.875 6.89062 6.875C7.58203 6.875 8.14062 7.43359 8.14062 8.125C8.14062 8.81641 7.58203 9.375 6.89062 9.375ZM14.3906 8.125C14.3906 8.81641 13.832 9.375 13.1406 9.375C12.4492 9.375 11.8906 8.81641 11.8906 8.125C11.8906 7.43359 12.4492 6.875 13.1406 6.875C13.832 6.875 14.3906 7.43359 14.3906 8.125ZM6.25 13.125H13.75C14.0938 13.125 14.375 13.4062 14.375 13.75C14.375 14.0938 14.0938 14.375 13.75 14.375H6.25C5.90625 14.375 5.625 14.0938 5.625 13.75C5.625 13.4062 5.90625 13.125 6.25 13.125Z" fill="#F9D05F"/>
</g>
<defs>
<clipPath id="clip0_52_686">
<rect width="20" height="20" fill="white"/>
</clipPath>
</defs>
</svg>
