<svg width="215" height="119" viewBox="0 0 215 119" fill="none" xmlns="http://www.w3.org/2000/svg">
<g clip-path="url(#clip0_115_129)">
<path d="M129.383 80.2514C129.289 80.2516 129.197 80.2211 129.122 80.1646C128.524 79.7222 127.935 79.2587 127.373 78.7846C127.329 78.7474 127.292 78.7018 127.266 78.6505C127.239 78.5992 127.223 78.5432 127.218 78.4856C127.213 78.428 127.219 78.37 127.237 78.3149C127.254 78.2598 127.283 78.2087 127.32 78.1645C127.357 78.1203 127.403 78.0838 127.454 78.0572C127.505 78.0306 127.561 78.0144 127.619 78.0094C127.676 78.0045 127.734 78.0109 127.789 78.0284C127.845 78.0459 127.896 78.074 127.94 78.1113C128.488 78.5725 129.062 79.0254 129.646 79.4573C129.721 79.5124 129.776 79.5896 129.804 79.678C129.832 79.7664 129.832 79.8615 129.802 79.9495C129.773 80.0376 129.717 80.1142 129.642 80.1684C129.567 80.2227 129.476 80.2517 129.383 80.2514Z" fill="#E5E5ED"/>
<path d="M215.63 162.164C215.522 162.164 215.418 162.124 215.337 162.052C215.256 161.98 215.205 161.881 215.193 161.773C215.181 161.666 215.208 161.558 215.271 161.47C215.333 161.381 215.426 161.319 215.531 161.295C216.914 160.975 218.353 160.605 219.807 160.193C219.919 160.161 220.04 160.175 220.142 160.232C220.243 160.289 220.319 160.384 220.35 160.496C220.382 160.608 220.368 160.729 220.311 160.831C220.254 160.933 220.159 161.008 220.047 161.04C218.579 161.456 217.126 161.83 215.73 162.152C215.697 162.16 215.664 162.164 215.63 162.164ZM179.812 158.232C179.732 158.232 179.653 158.209 179.585 158.166C178.306 157.383 177.083 156.512 175.924 155.56C175.834 155.486 175.777 155.379 175.766 155.263C175.754 155.147 175.79 155.031 175.864 154.941C175.938 154.851 176.045 154.794 176.162 154.782C176.278 154.771 176.394 154.807 176.484 154.881C177.612 155.807 178.802 156.654 180.046 157.417C180.128 157.467 180.191 157.543 180.226 157.633C180.261 157.722 180.265 157.821 180.239 157.913C180.212 158.006 180.156 158.087 180.079 158.145C180.002 158.202 179.908 158.233 179.812 158.232ZM172.036 151.471C171.97 151.471 171.905 151.456 171.846 151.428C171.786 151.399 171.734 151.358 171.693 151.307C170.751 150.131 169.913 148.878 169.186 147.559C169.158 147.508 169.139 147.453 169.132 147.395C169.125 147.337 169.13 147.279 169.146 147.223C169.162 147.167 169.189 147.114 169.225 147.069C169.261 147.023 169.306 146.985 169.357 146.957C169.408 146.929 169.464 146.911 169.522 146.905C169.58 146.899 169.638 146.904 169.694 146.92C169.75 146.937 169.802 146.964 169.847 147.001C169.892 147.038 169.929 147.083 169.957 147.134C170.659 148.409 171.469 149.621 172.379 150.758C172.431 150.822 172.463 150.9 172.473 150.983C172.482 151.065 172.468 151.149 172.432 151.223C172.397 151.298 172.34 151.361 172.27 151.406C172.2 151.45 172.119 151.473 172.036 151.473V151.471ZM166.484 132.086C166.464 132.087 166.445 132.085 166.425 132.083C166.367 132.075 166.312 132.056 166.262 132.027C166.212 131.998 166.168 131.959 166.133 131.913C166.098 131.867 166.072 131.815 166.058 131.759C166.043 131.703 166.039 131.645 166.047 131.587C166.248 130.09 166.604 128.617 167.11 127.193C167.15 127.083 167.231 126.993 167.337 126.943C167.442 126.893 167.564 126.887 167.674 126.926C167.784 126.966 167.874 127.047 167.924 127.153C167.974 127.258 167.98 127.38 167.941 127.49C167.455 128.856 167.113 130.269 166.921 131.706C166.906 131.811 166.854 131.907 166.774 131.976C166.694 132.046 166.592 132.084 166.486 132.084L166.484 132.086ZM170.304 122.585C170.223 122.585 170.143 122.562 170.074 122.52C170.005 122.477 169.949 122.416 169.912 122.343C169.875 122.271 169.86 122.19 169.866 122.109C169.873 122.028 169.902 121.95 169.95 121.885C170.845 120.674 171.843 119.545 172.935 118.509C173.02 118.434 173.132 118.395 173.245 118.4C173.359 118.404 173.466 118.453 173.545 118.535C173.624 118.617 173.668 118.727 173.667 118.841C173.667 118.954 173.623 119.064 173.544 119.146C172.489 120.146 171.524 121.236 170.66 122.405C170.619 122.46 170.565 122.505 170.504 122.536C170.442 122.567 170.374 122.583 170.306 122.583L170.304 122.585ZM177.827 115.539C177.734 115.539 177.643 115.509 177.567 115.454C177.492 115.399 177.436 115.321 177.408 115.233C177.379 115.144 177.38 115.048 177.409 114.96C177.439 114.871 177.496 114.794 177.572 114.74C178.616 113.998 179.761 113.23 181.278 112.261C181.377 112.198 181.496 112.177 181.61 112.202C181.724 112.227 181.824 112.296 181.886 112.394C181.949 112.492 181.971 112.612 181.946 112.726C181.921 112.84 181.852 112.939 181.753 113.002C180.243 113.967 179.111 114.724 178.082 115.457C178.008 115.509 177.919 115.537 177.828 115.536L177.827 115.539ZM186.508 109.891C186.414 109.891 186.321 109.861 186.245 109.804C186.169 109.747 186.114 109.668 186.087 109.577C186.06 109.486 186.063 109.389 186.095 109.3C186.128 109.211 186.188 109.135 186.268 109.083C187.694 108.151 188.847 107.354 189.891 106.575C189.985 106.505 190.103 106.475 190.218 106.492C190.334 106.508 190.439 106.57 190.509 106.664C190.579 106.758 190.609 106.875 190.592 106.991C190.575 107.107 190.513 107.211 190.42 107.281C189.357 108.072 188.19 108.878 186.748 109.82C186.677 109.866 186.594 109.889 186.51 109.889L186.508 109.891ZM194.632 103.51C194.545 103.51 194.461 103.485 194.388 103.437C194.316 103.389 194.26 103.321 194.226 103.242C194.192 103.162 194.183 103.074 194.199 102.989C194.215 102.904 194.256 102.825 194.317 102.763C194.729 102.338 195.127 101.902 195.497 101.468C196.061 100.808 196.585 100.116 197.067 99.3942C197.132 99.297 197.233 99.2294 197.347 99.2064C197.462 99.1834 197.581 99.2068 197.678 99.2715C197.775 99.3362 197.843 99.4368 197.866 99.5513C197.889 99.6657 197.865 99.7846 197.8 99.8818C197.299 100.633 196.753 101.353 196.167 102.039C195.785 102.488 195.374 102.938 194.948 103.377C194.907 103.419 194.858 103.451 194.804 103.474C194.75 103.496 194.692 103.508 194.634 103.508L194.632 103.51ZM199.859 94.7137C199.824 94.7137 199.789 94.7097 199.755 94.7016C199.699 94.6879 199.646 94.6633 199.599 94.6291C199.553 94.5949 199.513 94.5519 199.483 94.5025C199.453 94.453 199.433 94.3982 199.424 94.341C199.416 94.2839 199.418 94.2256 199.432 94.1694C199.563 93.6315 199.66 93.0859 199.723 92.5358C199.773 92.108 199.798 91.6778 199.799 91.2471C199.799 90.8039 199.774 90.3611 199.723 89.9208C199.715 89.8627 199.719 89.8036 199.734 89.747C199.749 89.6904 199.775 89.6374 199.811 89.5911C199.847 89.5448 199.892 89.5061 199.943 89.4773C199.994 89.4486 200.05 89.4303 200.109 89.4235C200.167 89.4168 200.226 89.4217 200.282 89.4381C200.338 89.4545 200.391 89.4819 200.436 89.5188C200.482 89.5557 200.52 89.6013 200.547 89.6529C200.575 89.7046 200.592 89.7613 200.597 89.8196C200.652 90.2935 200.68 90.7701 200.68 91.2471C200.68 91.7107 200.655 92.1739 200.604 92.6347C200.537 93.2217 200.433 93.8039 200.292 94.3778C200.269 94.4739 200.213 94.5592 200.135 94.6198C200.056 94.6803 199.96 94.7126 199.861 94.7114L199.859 94.7137ZM157.056 88.6495C156.125 88.6495 155.185 88.6253 154.262 88.5785C154.205 88.5756 154.148 88.5613 154.096 88.5365C154.044 88.5117 153.997 88.4769 153.958 88.434C153.919 88.3911 153.889 88.341 153.87 88.2865C153.85 88.232 153.842 88.1743 153.845 88.1165C153.848 88.0588 153.862 88.0022 153.887 87.9499C153.912 87.8977 153.947 87.8509 153.989 87.8121C154.032 87.7733 154.082 87.7434 154.137 87.724C154.191 87.7046 154.249 87.6961 154.307 87.6991C155.218 87.7459 156.144 87.7693 157.059 87.7693H157.064C157.608 87.7693 158.161 87.761 158.707 87.7443C158.824 87.7408 158.937 87.7838 159.022 87.8639C159.107 87.944 159.157 88.0545 159.161 88.1713C159.164 88.288 159.121 88.4013 159.041 88.4863C158.961 88.5713 158.85 88.6211 158.734 88.6246C158.179 88.6412 157.617 88.6495 157.064 88.6495H157.056ZM164.609 88.1263C164.498 88.1257 164.391 88.0831 164.31 88.0071C164.23 87.9311 164.18 87.8273 164.173 87.7165C164.165 87.6057 164.2 87.4961 164.269 87.4097C164.339 87.3233 164.439 87.2665 164.549 87.2506C166.007 87.0468 167.463 86.7803 168.877 86.4595C168.933 86.4459 168.992 86.4436 169.05 86.4529C169.107 86.4622 169.162 86.4828 169.212 86.5135C169.261 86.5443 169.304 86.5846 169.338 86.632C169.372 86.6795 169.396 86.7332 169.409 86.79C169.422 86.8468 169.423 86.9057 169.413 86.9631C169.403 87.0205 169.382 87.0753 169.35 87.1244C169.319 87.1735 169.278 87.2159 169.23 87.2491C169.182 87.2823 169.128 87.3057 169.071 87.3178C167.637 87.6447 166.153 87.915 164.671 88.1226C164.65 88.1242 164.628 88.1248 164.607 88.1241L164.609 88.1263ZM148.4 87.9527C148.375 87.9527 148.35 87.9507 148.325 87.9467C146.845 87.7043 145.371 87.3971 143.946 87.0325C143.89 87.0181 143.838 86.9929 143.792 86.9582C143.745 86.9236 143.706 86.8801 143.677 86.8304C143.647 86.7807 143.628 86.7256 143.62 86.6684C143.612 86.6111 143.615 86.5529 143.629 86.4969C143.643 86.4408 143.669 86.3882 143.703 86.3419C143.738 86.2957 143.781 86.2567 143.831 86.2272C143.881 86.1977 143.936 86.1783 143.993 86.1701C144.05 86.1619 144.109 86.1651 144.165 86.1794C145.565 86.538 147.014 86.84 148.468 87.0778C148.577 87.0949 148.677 87.1529 148.745 87.2402C148.814 87.3274 148.847 87.4374 148.838 87.5482C148.829 87.6589 148.779 87.7621 148.697 87.8372C148.615 87.9122 148.508 87.9535 148.397 87.9527H148.4ZM174.653 85.6797C174.549 85.6803 174.448 85.6442 174.368 85.5777C174.288 85.5111 174.234 85.4185 174.216 85.3161C174.198 85.2138 174.217 85.1083 174.269 85.0184C174.321 84.9286 174.404 84.8601 174.502 84.8251L174.761 84.7315C175.924 84.3065 177.094 83.8256 178.226 83.3598L178.609 83.202C178.717 83.1576 178.838 83.1579 178.946 83.2028C179.054 83.2478 179.139 83.3337 179.184 83.4417C179.228 83.5497 179.228 83.671 179.183 83.7788C179.138 83.8866 179.052 83.9721 178.944 84.0166L178.561 84.1736C177.421 84.6424 176.242 85.1278 175.063 85.5581L174.798 85.654C174.751 85.6701 174.701 85.678 174.65 85.6774L174.653 85.6797ZM138.432 85.2267C138.376 85.2268 138.321 85.2162 138.27 85.1958C136.879 84.6456 135.518 84.0232 134.193 83.3311C134.142 83.3043 134.096 83.2677 134.059 83.2233C134.022 83.1789 133.994 83.1277 133.977 83.0725C133.942 82.9611 133.953 82.8404 134.007 82.737C134.061 82.6336 134.154 82.5559 134.266 82.5211C134.377 82.4863 134.498 82.4971 134.601 82.5513C135.899 83.2291 137.231 83.8387 138.593 84.3774C138.688 84.4152 138.767 84.4849 138.816 84.5747C138.866 84.6645 138.882 84.7686 138.863 84.8692C138.844 84.9698 138.79 85.0606 138.711 85.1258C138.632 85.1911 138.533 85.2268 138.43 85.2267H138.432ZM197.988 84.8885C197.922 84.8886 197.857 84.8738 197.797 84.845C197.738 84.8162 197.685 84.7743 197.644 84.7224C197.32 84.3165 196.959 83.9412 196.566 83.6014C195.89 83.023 195.13 82.5496 194.313 82.1972C194.26 82.1741 194.212 82.1408 194.172 82.0992C194.132 82.0576 194.1 82.0085 194.079 81.9547C194.058 81.9009 194.047 81.8434 194.049 81.7856C194.05 81.7279 194.062 81.6708 194.085 81.6178C194.108 81.5649 194.142 81.5169 194.183 81.4768C194.225 81.4367 194.274 81.4052 194.328 81.384C194.382 81.3629 194.439 81.3526 194.497 81.3536C194.555 81.3547 194.612 81.3671 194.665 81.3902C195.563 81.778 196.397 82.2986 197.141 82.9348C197.575 83.3103 197.973 83.7255 198.33 84.1751C198.381 84.2399 198.413 84.3179 198.422 84.4001C198.432 84.4823 198.418 84.5655 198.382 84.6401C198.346 84.7147 198.29 84.7776 198.22 84.8218C198.15 84.866 198.069 84.8897 197.986 84.89L197.988 84.8885ZM184.336 82.0274C184.23 82.0271 184.127 81.9884 184.047 81.9186C183.967 81.8487 183.915 81.7523 183.901 81.6471C183.887 81.542 183.911 81.4351 183.969 81.3463C184.027 81.2575 184.115 81.1926 184.217 81.1638C184.737 81.0173 185.25 80.8905 185.743 80.7863C186.71 80.579 187.692 80.4508 188.68 80.4028C188.797 80.3974 188.911 80.4386 188.997 80.5172C189.084 80.5958 189.135 80.7055 189.14 80.8222C189.146 80.9388 189.105 81.0528 189.026 81.1391C188.947 81.2254 188.838 81.2769 188.721 81.2823C187.782 81.3277 186.848 81.4497 185.928 81.6469C185.453 81.7488 184.958 81.8734 184.457 82.0123C184.416 82.0224 184.375 82.0267 184.334 82.0251L184.336 82.0274Z" fill="#E5E5ED"/>
<path d="M82.417 53.6824C82.3096 53.6822 82.2059 53.6428 82.1255 53.5714C82.0451 53.5001 81.9936 53.4018 81.9807 53.2951C81.8023 51.8573 81.5307 50.4325 81.1677 49.0299C81.1429 48.9183 81.1625 48.8015 81.2223 48.7041C81.2821 48.6067 81.3775 48.5364 81.4882 48.5081C81.5989 48.4797 81.7163 48.4956 81.8155 48.5522C81.9148 48.6089 81.9881 48.7019 82.02 48.8117C82.393 50.2515 82.6719 51.7141 82.8549 53.1902C82.8617 53.2476 82.8572 53.3058 82.8416 53.3614C82.8259 53.4171 82.7995 53.4691 82.7637 53.5145C82.728 53.56 82.6836 53.5979 82.6332 53.6262C82.5828 53.6545 82.5273 53.6725 82.4699 53.6794C82.4524 53.6815 82.4347 53.6825 82.417 53.6824ZM79.7567 43.793C79.6688 43.793 79.5828 43.7665 79.51 43.7171C79.4372 43.6677 79.3809 43.5977 79.3483 43.516C78.8199 42.1934 78.216 40.8534 77.5584 39.5338C77.5064 39.4293 77.498 39.3084 77.5351 39.1977C77.5722 39.087 77.6517 38.9955 77.7562 38.9435C77.8607 38.8914 77.9816 38.883 78.0924 38.9201C78.2031 38.9572 78.2945 39.0367 78.3466 39.1413C79.0147 40.482 79.6299 41.8438 80.1651 43.1891C80.2086 43.2974 80.2072 43.4185 80.1613 43.5258C80.1155 43.6332 80.0289 43.7179 79.9206 43.7613C79.8684 43.7818 79.8128 43.7923 79.7567 43.7923V43.793ZM53.0117 40.5409C52.8973 40.5406 52.7874 40.4959 52.7054 40.416C52.6235 40.3362 52.5758 40.2276 52.5726 40.1132C52.5693 39.9988 52.6108 39.8877 52.6881 39.8033C52.7654 39.719 52.8725 39.6681 52.9868 39.6614C54.4124 39.58 55.8192 39.2956 57.1645 38.8166C57.2746 38.7775 57.3957 38.7837 57.5013 38.8339C57.6068 38.8841 57.6881 38.9741 57.7272 39.0843C57.7664 39.1944 57.7602 39.3155 57.71 39.4211C57.6598 39.5266 57.5697 39.6079 57.4596 39.647C56.0354 40.1543 54.546 40.4553 53.0366 40.5409H53.0117ZM47.2668 39.6221C47.2076 39.6221 47.149 39.61 47.0947 39.5866C45.6105 38.9555 44.3725 38.0444 43.4145 36.8826C43.3777 36.8379 43.3501 36.7865 43.3331 36.7312C43.3162 36.6759 43.3104 36.6179 43.3159 36.5603C43.3215 36.5028 43.3383 36.4469 43.3654 36.3958C43.3926 36.3448 43.4295 36.2995 43.4741 36.2628C43.5187 36.226 43.5701 36.1984 43.6254 36.1814C43.6807 36.1645 43.7388 36.1587 43.7964 36.1642C43.8539 36.1698 43.9098 36.1866 43.9609 36.2137C44.0119 36.2409 44.0571 36.2778 44.0939 36.3224C44.9605 37.3748 46.0861 38.2006 47.4397 38.7751C47.5333 38.8147 47.6104 38.8855 47.6578 38.9755C47.7051 39.0655 47.7199 39.1691 47.6995 39.2687C47.6791 39.3683 47.6249 39.4578 47.546 39.5219C47.4671 39.5861 47.3685 39.621 47.2668 39.6206V39.6221ZM62.3469 36.7112C62.2569 36.7112 62.169 36.6835 62.0952 36.6318C62.0213 36.5802 61.9652 36.5071 61.9343 36.4225C61.9034 36.3379 61.8993 36.2459 61.9224 36.1588C61.9456 36.0718 61.995 35.9939 62.0638 35.9359C63.1724 35.011 64.2033 33.9967 65.1461 32.9034C65.2243 32.8202 65.3317 32.7705 65.4458 32.7649C65.5598 32.7593 65.6716 32.7981 65.7576 32.8732C65.8436 32.9483 65.8971 33.0539 65.9068 33.1677C65.9165 33.2814 65.8817 33.3946 65.8097 33.4832C64.835 34.6122 63.7696 35.6594 62.624 36.6146C62.5455 36.6777 62.4477 36.7119 62.3469 36.7112ZM163.526 34.9749H163.505C163.335 34.9681 163.165 34.959 162.996 34.9485C161.674 34.8635 160.361 34.6701 159.071 34.3702C159.015 34.3572 158.961 34.3332 158.914 34.2996C158.867 34.266 158.827 34.2235 158.797 34.1744C158.735 34.0754 158.715 33.9559 158.741 33.8421C158.768 33.7284 158.838 33.6298 158.937 33.568C159.036 33.5062 159.156 33.4863 159.269 33.5126C160.513 33.8017 161.778 33.988 163.052 34.0697C163.213 34.0803 163.378 34.0886 163.542 34.0954C163.658 34.0978 163.769 34.1465 163.85 34.2307C163.931 34.315 163.975 34.4279 163.973 34.5446C163.97 34.6613 163.921 34.7723 163.837 34.8531C163.753 34.934 163.64 34.978 163.523 34.9756L163.526 34.9749ZM75.0672 34.6676C74.993 34.6679 74.92 34.6493 74.8549 34.6136C74.7898 34.578 74.7348 34.5264 74.695 34.4638C73.9001 33.2114 73.0622 32.0051 72.2038 30.8787C72.1332 30.7858 72.1023 30.6687 72.118 30.553C72.1337 30.4373 72.1947 30.3326 72.2876 30.262C72.3805 30.1913 72.4977 30.1604 72.6134 30.1761C72.729 30.1918 72.8337 30.2529 72.9044 30.3458C73.7756 31.4917 74.6279 32.7185 75.4364 33.9912C75.4988 34.0899 75.5195 34.2093 75.4941 34.3232C75.4686 34.4371 75.399 34.5363 75.3005 34.5989C75.2308 34.6436 75.1499 34.6674 75.0672 34.6676ZM169.356 34.5068C169.247 34.5069 169.141 34.4662 169.06 34.3928C168.979 34.3194 168.928 34.2184 168.918 34.1096C168.907 34.0008 168.937 33.8919 169.002 33.8041C169.068 33.7164 169.163 33.6561 169.271 33.6349C170.688 33.3496 172.083 32.9628 173.445 32.4776C173.5 32.4584 173.558 32.4501 173.615 32.4532C173.673 32.4563 173.73 32.4707 173.782 32.4957C173.834 32.5206 173.881 32.5556 173.919 32.5986C173.958 32.6417 173.988 32.6919 174.007 32.7464C174.026 32.8009 174.034 32.8587 174.031 32.9164C174.028 32.9742 174.014 33.0307 173.989 33.0829C173.964 33.135 173.929 33.1818 173.886 33.2204C173.843 33.259 173.793 33.2888 173.738 33.308C172.336 33.8084 170.9 34.2073 169.441 34.5016C169.413 34.5063 169.384 34.508 169.356 34.5068ZM153.647 32.4361C153.582 32.4362 153.518 32.4217 153.459 32.3938C152.117 31.7559 150.816 31.0361 149.562 30.2386C149.463 30.1762 149.393 30.0772 149.368 29.9633C149.342 29.8494 149.363 29.7299 149.425 29.6312C149.487 29.5325 149.586 29.4626 149.7 29.4369C149.814 29.4112 149.934 29.4319 150.032 29.4942C151.256 30.2727 152.525 30.9754 153.835 31.5982C153.925 31.6409 153.998 31.7131 154.042 31.8029C154.086 31.8928 154.098 31.9948 154.076 32.0923C154.054 32.1899 154 32.277 153.922 32.3395C153.844 32.402 153.747 32.4361 153.647 32.4361ZM41.802 31.6276C41.6864 31.628 41.5753 31.583 41.4927 31.5022C41.4101 31.4214 41.3625 31.3113 41.3604 31.1958C41.3604 31.1316 41.3604 31.0667 41.3604 31.0018C41.3694 29.5344 41.6617 28.0826 42.221 26.726C42.2652 26.6179 42.3505 26.5319 42.4582 26.4868C42.5659 26.4417 42.687 26.4413 42.7951 26.4855C42.9031 26.5298 42.9891 26.6151 43.0342 26.7228C43.0793 26.8304 43.0798 26.9516 43.0355 27.0596C42.5197 28.3096 42.2498 29.6473 42.2406 30.9995C42.2406 31.0592 42.2406 31.118 42.2406 31.1769C42.2434 31.2933 42.2001 31.406 42.12 31.4905C42.0399 31.5749 41.9296 31.6242 41.8133 31.6276H41.802ZM178.957 30.9678C178.858 30.9679 178.763 30.9349 178.685 30.8741C178.607 30.8134 178.552 30.7283 178.529 30.6326C178.505 30.5369 178.515 30.4361 178.555 30.3463C178.596 30.2565 178.666 30.183 178.753 30.1374C179.977 29.498 181.218 28.7891 182.546 27.9693C182.595 27.9371 182.65 27.9151 182.708 27.9046C182.766 27.8941 182.825 27.8953 182.882 27.9081C182.94 27.9209 182.994 27.945 183.042 27.9791C183.09 28.0132 183.13 28.0565 183.161 28.1065C183.192 28.1566 183.213 28.2123 183.222 28.2703C183.231 28.3284 183.228 28.3877 183.213 28.4447C183.199 28.5017 183.174 28.5553 183.138 28.6023C183.103 28.6492 183.059 28.6886 183.008 28.7182C181.662 29.5486 180.403 30.2688 179.158 30.918C179.096 30.9505 179.027 30.9675 178.957 30.9678ZM69.0302 28.9628C68.95 28.9627 68.8715 28.9407 68.8029 28.8992C68.7343 28.8578 68.6784 28.7984 68.6411 28.7275C68.6038 28.6565 68.5866 28.5768 68.5913 28.4968C68.596 28.4168 68.6225 28.3396 68.6678 28.2735C69.3623 27.2627 70.0486 26.2187 70.7129 25.2101L71.1039 24.616C71.1351 24.5663 71.1759 24.5235 71.2239 24.4898C71.2719 24.4562 71.3261 24.4324 71.3834 24.42C71.4407 24.4076 71.4999 24.4068 71.5575 24.4176C71.6151 24.4284 71.67 24.4505 71.7189 24.4828C71.7679 24.5151 71.8098 24.5568 71.8424 24.6056C71.875 24.6543 71.8975 24.709 71.9086 24.7666C71.9198 24.8241 71.9193 24.8833 71.9073 24.9407C71.8952 24.998 71.8718 25.0524 71.8385 25.1006L71.4482 25.6932C70.7816 26.7063 70.0931 27.7534 69.394 28.7718C69.3536 28.8309 69.2992 28.8791 69.2358 28.9124C69.1724 28.9457 69.1018 28.963 69.0302 28.9628ZM145.05 26.8618C144.949 26.8619 144.851 26.8269 144.773 26.7629C143.686 25.8789 142.592 24.9293 141.429 23.8595C141.386 23.8204 141.352 23.7733 141.327 23.7209C141.303 23.6685 141.289 23.6118 141.287 23.554C141.284 23.4962 141.293 23.4386 141.313 23.3842C141.333 23.3299 141.363 23.2801 141.402 23.2375C141.441 23.1949 141.488 23.1605 141.541 23.1361C141.593 23.1117 141.65 23.0979 141.708 23.0955C141.765 23.093 141.823 23.102 141.877 23.1218C141.932 23.1416 141.982 23.172 142.024 23.2111C143.175 24.268 144.255 25.2078 145.328 26.0797C145.399 26.1372 145.45 26.215 145.474 26.3026C145.499 26.3901 145.496 26.4831 145.465 26.5688C145.435 26.6544 145.378 26.7285 145.304 26.7808C145.23 26.8332 145.141 26.8612 145.05 26.8611V26.8618ZM68.6882 26.6444C68.5738 26.6448 68.4638 26.6003 68.3817 26.5206C67.3473 25.5113 66.2369 24.583 65.0601 23.744C65.0119 23.7111 64.9708 23.6689 64.9391 23.6199C64.9074 23.5709 64.8857 23.5161 64.8754 23.4586C64.8651 23.4012 64.8663 23.3422 64.879 23.2853C64.8916 23.2283 64.9155 23.1744 64.9492 23.1267C64.9829 23.0791 65.0257 23.0386 65.0752 23.0076C65.1247 22.9767 65.1798 22.9559 65.2374 22.9465C65.2951 22.937 65.354 22.9391 65.4107 22.9527C65.4675 22.9662 65.521 22.9909 65.5681 23.0254C66.7822 23.8903 67.9278 24.8476 68.9947 25.8888C69.0572 25.9498 69.1001 26.0281 69.118 26.1137C69.1358 26.1992 69.1278 26.2881 69.0949 26.3691C69.062 26.4501 69.0058 26.5194 68.9334 26.5683C68.8609 26.6172 68.7756 26.6435 68.6882 26.6437V26.6444ZM187.667 25.5385C187.574 25.5384 187.482 25.5086 187.407 25.4533C187.332 25.398 187.276 25.3202 187.248 25.231C187.219 25.1418 187.22 25.046 187.25 24.9574C187.28 24.8688 187.338 24.792 187.414 24.7383C188.664 23.8603 189.894 22.968 190.826 22.2886C190.92 22.2198 191.038 22.1913 191.153 22.2095C191.269 22.2276 191.372 22.2908 191.441 22.3852C191.51 22.4796 191.538 22.5975 191.52 22.7128C191.502 22.8282 191.439 22.9317 191.344 23.0005C190.41 23.6799 189.176 24.5775 187.919 25.4585C187.846 25.5107 187.758 25.5386 187.668 25.5385H187.667ZM46.139 22.7196C46.0467 22.7197 45.9568 22.6908 45.8819 22.6369C45.807 22.5831 45.7509 22.5071 45.7215 22.4196C45.6921 22.3322 45.691 22.2377 45.7182 22.1496C45.7454 22.0615 45.7996 21.9841 45.8732 21.9285C47.091 21.0151 48.4602 20.3233 49.918 19.8849C49.9733 19.868 50.0314 19.8621 50.0889 19.8676C50.1465 19.8731 50.2024 19.8898 50.2535 19.9169C50.3045 19.944 50.3498 19.9809 50.3866 20.0255C50.4234 20.07 50.451 20.1214 50.468 20.1767C50.485 20.232 50.4909 20.29 50.4854 20.3476C50.4799 20.4051 50.4631 20.461 50.436 20.5121C50.4089 20.5632 50.372 20.6084 50.3275 20.6452C50.2829 20.682 50.2315 20.7097 50.1762 20.7267C48.8159 21.1345 47.5381 21.779 46.4017 22.6305C46.3259 22.6876 46.2338 22.7188 46.139 22.7196ZM60.1403 21.0966C60.0889 21.0969 60.0378 21.0882 59.9893 21.0709C59.892 21.0362 59.7938 21.0022 59.6949 20.9682C58.4376 20.5445 57.1338 20.2738 55.8117 20.162C55.6953 20.152 55.5877 20.0962 55.5126 20.0068C55.4374 19.9175 55.4008 19.802 55.4108 19.6856C55.4208 19.5693 55.4766 19.4617 55.5659 19.3866C55.6553 19.3114 55.7708 19.2748 55.8871 19.2848C57.28 19.4025 58.6535 19.688 59.978 20.1348C60.0814 20.1695 60.1841 20.205 60.2868 20.242C60.3847 20.277 60.467 20.3455 60.5192 20.4353C60.5715 20.5252 60.5902 20.6307 60.5721 20.733C60.554 20.8354 60.5003 20.9281 60.4204 20.9946C60.3406 21.0611 60.2397 21.0973 60.1358 21.0966H60.1403ZM74.7977 20.4647C74.7165 20.4645 74.637 20.4418 74.5679 20.3993C74.4987 20.3567 74.4427 20.2959 74.4059 20.2235C74.3691 20.1512 74.3531 20.07 74.3595 19.9891C74.3659 19.9082 74.3945 19.8306 74.4421 19.7649C75.342 18.5314 76.2539 17.3492 77.1425 16.2591C77.2187 16.1768 77.3234 16.1267 77.4353 16.119C77.5472 16.1113 77.6578 16.1467 77.7445 16.2178C77.8312 16.2889 77.8875 16.3904 77.9019 16.5016C77.9163 16.6129 77.8877 16.7254 77.8219 16.8162C76.9394 17.8965 76.0411 19.0636 75.1503 20.2835C75.1098 20.3393 75.0569 20.3847 74.9956 20.4162C74.9344 20.4477 74.8666 20.4643 74.7977 20.4647ZM137.514 19.8857C137.456 19.8857 137.398 19.8742 137.345 19.8517C137.291 19.8293 137.242 19.7965 137.201 19.7551C136.867 19.4161 136.528 19.0689 136.163 18.6937L135.99 18.5163C135.381 17.8897 134.751 17.242 134.126 16.6033C134.044 16.5199 133.998 16.4075 134 16.2907C134.001 16.1739 134.048 16.0623 134.132 15.9805C134.215 15.8987 134.327 15.8534 134.444 15.8546C134.561 15.8557 134.673 15.9032 134.754 15.9866C135.382 16.6267 136.012 17.2752 136.621 17.9025L136.794 18.0799C137.157 18.4536 137.496 18.7994 137.828 19.1368C137.89 19.1985 137.931 19.277 137.948 19.3624C137.964 19.4477 137.955 19.5361 137.922 19.6162C137.888 19.6964 137.831 19.7648 137.759 19.8128C137.686 19.8608 137.601 19.8861 137.514 19.8857ZM130.267 12.6061C130.155 12.606 130.047 12.5627 129.965 12.4853C128.817 11.3974 127.753 10.4387 126.714 9.55395C126.629 9.47734 126.576 9.37046 126.569 9.25604C126.561 9.14163 126.598 9.02873 126.673 8.94136C126.747 8.854 126.852 8.79908 126.966 8.78829C127.081 8.77749 127.194 8.81169 127.284 8.88358C128.336 9.77816 129.411 10.7475 130.571 11.8466C130.635 11.9071 130.679 11.9854 130.698 12.0713C130.717 12.1572 130.709 12.2468 130.677 12.3286C130.644 12.4103 130.588 12.4804 130.515 12.5299C130.443 12.5793 130.357 12.6059 130.269 12.6061H130.267ZM81.3904 12.6023C81.3035 12.6026 81.2185 12.5771 81.1461 12.5291C81.0737 12.4811 81.0171 12.4126 80.9836 12.3325C80.9501 12.2523 80.941 12.164 80.9577 12.0788C80.9743 11.9935 81.0159 11.9151 81.0771 11.8534C82.1392 10.7746 83.2308 9.75551 84.3232 8.8247C84.3668 8.78488 84.4179 8.75423 84.4736 8.73458C84.5293 8.71493 84.5883 8.70668 84.6472 8.71032C84.7061 8.71396 84.7637 8.72941 84.8166 8.75576C84.8694 8.78211 84.9164 8.81882 84.9547 8.8637C84.9931 8.90858 85.022 8.96072 85.0398 9.01701C85.0575 9.0733 85.0638 9.13259 85.0582 9.19136C85.0526 9.25012 85.0353 9.30716 85.0072 9.35908C84.9791 9.41099 84.9408 9.45673 84.8947 9.49355C83.8235 10.4085 82.7515 11.4103 81.7067 12.4709C81.6656 12.5128 81.6164 12.546 81.5622 12.5686C81.508 12.5912 81.4498 12.6026 81.3911 12.6023H81.3904ZM89.3094 6.09645C89.2144 6.09646 89.1219 6.06571 89.0458 6.00879C88.9696 5.95187 88.914 5.87184 88.8871 5.78067C88.8603 5.68949 88.8637 5.59208 88.8968 5.50299C88.9299 5.4139 88.991 5.33792 89.0709 5.28642C90.3225 4.48657 91.621 3.76257 92.9594 3.11831C93.0646 3.06776 93.1856 3.06107 93.2958 3.09972C93.4059 3.13837 93.4962 3.21919 93.5467 3.3244C93.5973 3.42962 93.604 3.5506 93.5653 3.66075C93.5267 3.77089 93.4459 3.86117 93.3406 3.91173C92.0342 4.54011 90.7665 5.24595 89.5442 6.02548C89.4745 6.07085 89.3933 6.09546 89.3102 6.09645H89.3094ZM122.339 6.09645C122.252 6.09659 122.166 6.07028 122.094 6.02095C120.894 5.2077 119.648 4.4656 118.361 3.79849C118.31 3.77237 118.263 3.73622 118.225 3.69214C118.188 3.64806 118.159 3.59691 118.141 3.54166C118.123 3.48641 118.116 3.42814 118.121 3.37021C118.125 3.31228 118.141 3.25585 118.168 3.20417C118.194 3.15248 118.231 3.10657 118.275 3.06908C118.32 3.03159 118.371 3.00327 118.427 2.98574C118.482 2.96821 118.54 2.96183 118.598 2.96697C118.656 2.9721 118.712 2.98864 118.764 3.01565C120.082 3.69715 121.359 4.45537 122.589 5.28642C122.667 5.33905 122.727 5.41548 122.758 5.50442C122.79 5.59337 122.792 5.69012 122.765 5.7804C122.737 5.87068 122.681 5.9497 122.605 6.00579C122.529 6.06188 122.437 6.09208 122.343 6.09192L122.339 6.09645ZM98.6318 1.87422C98.5259 1.87345 98.4238 1.83456 98.3442 1.76467C98.2646 1.69479 98.2128 1.59857 98.1983 1.49362C98.1838 1.38868 98.2076 1.28203 98.2653 1.1932C98.323 1.10436 98.4108 1.03927 98.5126 1.00984C99.9466 0.605208 101.408 0.305719 102.886 0.11376C103.002 0.0989439 103.119 0.130746 103.211 0.20217C103.303 0.273594 103.364 0.378789 103.378 0.494613C103.393 0.610438 103.361 0.727404 103.29 0.819781C103.219 0.912158 103.113 0.972378 102.997 0.987194C101.563 1.17337 100.144 1.46428 98.7526 1.85761C98.7133 1.86876 98.6727 1.87435 98.6318 1.87422ZM113.116 1.69002C113.076 1.6899 113.036 1.68457 112.998 1.67416C112.216 1.456 111.416 1.27482 110.63 1.1344C110.014 1.02569 109.383 0.939635 108.753 0.879242C108.695 0.87369 108.639 0.856848 108.588 0.829677C108.537 0.802506 108.492 0.765538 108.455 0.720884C108.418 0.67623 108.391 0.624765 108.374 0.569427C108.357 0.514088 108.351 0.45596 108.357 0.398362C108.362 0.340764 108.379 0.284823 108.406 0.233733C108.433 0.182644 108.47 0.137406 108.515 0.100604C108.56 0.0638013 108.611 0.0361543 108.666 0.0192415C108.722 0.00232858 108.78 -0.00351898 108.837 0.00203267C109.49 0.0639355 110.145 0.153015 110.784 0.266252C111.6 0.410441 112.425 0.597659 113.234 0.823378C113.337 0.851719 113.426 0.916362 113.484 1.00531C113.543 1.09426 113.568 1.20147 113.553 1.30705C113.539 1.41263 113.487 1.50941 113.406 1.57942C113.326 1.64943 113.223 1.68792 113.116 1.68775V1.69002Z" fill="#E5E5ED"/>
<path d="M117.808 29.172L89.8766 39.2463L87.1536 47.5783C86.7822 48.5544 82.6936 62.8412 83.8131 63.2677L108.472 57.5937L121.691 76.1367C122.811 76.5632 129.867 64.5254 130.239 63.5493L134.527 56.2175L120.335 30.1338C120.057 29.7407 119.668 29.4392 119.218 29.2679C118.768 29.0967 118.277 29.0633 117.808 29.172Z" fill="#231A36"/>
<path d="M134.811 40.0901C134.383 41.2165 133.145 41.7902 132.047 41.3735C130.948 40.9568 130.405 39.7044 130.833 38.5803L129.734 38.1621C129.306 39.2884 128.068 39.8622 126.97 39.4454C125.871 39.0287 125.328 37.7763 125.757 36.6523L124.657 36.234C124.229 37.3604 122.991 37.9341 121.893 37.5174C120.795 37.1007 120.252 35.8483 120.68 34.7242L119.581 34.306C119.153 35.4323 117.915 36.0061 116.816 35.5893C115.718 35.1726 115.175 33.9195 115.603 32.7962L114.505 32.3779C114.076 33.5035 112.839 34.078 111.739 33.6613C110.64 33.2446 110.098 31.9914 110.527 30.8681L109.428 30.4499C109.001 31.5596 107.762 32.1341 106.66 31.7159C105.559 31.2977 105.021 30.0498 105.452 28.9174L104.353 28.4992C103.925 29.6248 102.687 30.1985 101.589 29.7826C100.49 29.3666 99.9469 28.1127 100.376 26.9894L98.9791 26.4609L83.9058 66.0592L121.219 80.2583L136.29 40.6563L134.811 40.0901Z" fill="#F9F9FF" stroke="#818181" stroke-width="0.226474" stroke-miterlimit="10"/>
<path d="M107.447 61.5881L121.408 55.4597C125.075 53.8503 129.453 53.7989 133.449 55.3201C134.387 55.6772 134.922 56.5634 134.642 57.2987L129.459 70.9151L124.477 84.0106C124.197 84.7466 122.503 85.3807 121.565 85.0237L115.795 82.8269L106.816 63.2482C106.743 63.0986 106.701 62.9357 106.694 62.7694C106.686 62.603 106.713 62.4369 106.772 62.2813C106.831 62.1257 106.921 61.9838 107.038 61.8646C107.154 61.7454 107.293 61.6513 107.447 61.5881Z" fill="#5635A5"/>
<path d="M106.591 61.2426L100.237 47.3832C98.5685 43.7437 95.33 40.795 91.335 39.2739C90.3966 38.9168 89.4092 39.2241 89.1291 39.9594L83.9474 53.5757L78.903 66.832C78.623 67.5673 79.3417 68.9563 80.28 69.3142L86.2378 71.56L105.96 62.9027C106.114 62.8395 106.253 62.7454 106.37 62.6262C106.486 62.507 106.576 62.3652 106.635 62.2095C106.695 62.0539 106.721 61.8878 106.714 61.7215C106.706 61.5551 106.664 61.3922 106.591 61.2426Z" fill="#5635A5"/>
<path d="M126.556 78.5442L124.367 84.305C124.04 85.1656 122.866 85.5181 121.746 85.0924L80.2826 69.3147C79.163 68.8889 78.5206 67.8456 78.8482 66.9843L81.0375 61.2235L107.542 56.2411C107.985 56.1645 108.441 56.2043 108.864 56.3566C109.339 56.5174 109.758 56.8111 110.071 57.2028L126.556 78.5442Z" fill="#6941C7"/>
<path d="M81.9523 58.8192L104.326 56.3008L104.555 56.7998L81.0381 61.2213L81.9523 58.8192Z" fill="#2C1B53"/>
<path d="M127.47 76.1428L112.431 59.3867L111.929 59.6072L126.557 78.5449L127.47 76.1428Z" fill="#2C1B53"/>
<path d="M212.63 1.13281L208.838 18.5955L200.849 12.9397L212.63 1.13281Z" fill="#6941C7"/>
<path d="M212.63 1.13281L197.712 11.5295L190.374 9.77128L212.63 1.13281Z" fill="#6941C7"/>
<path d="M212.63 1.13281L200.849 12.9397L198.824 18.0255L197.712 11.5295L212.63 1.13281Z" fill="#2C1B53"/>
</g>
<defs>
<clipPath id="clip0_115_129">
<rect width="215" height="119" fill="white"/>
</clipPath>
</defs>
</svg>
