<svg width="40" height="40" viewBox="0 0 40 40" fill="none" xmlns="http://www.w3.org/2000/svg">
<path d="M20 40C31.0457 40 40 31.0457 40 20C40 8.9543 31.0457 0 20 0C8.9543 0 0 8.9543 0 20C0 31.0457 8.9543 40 20 40Z" fill="#F76964"/>
<path d="M23.1094 17.6498C22.6755 18.6963 22.3614 19.7885 22.1731 20.9057C22.1731 20.9791 22.1364 21.077 22.2159 21.1137C22.2955 21.1505 22.3995 21.0525 22.4852 21.0036C22.7597 20.8294 23.0781 20.7369 23.4032 20.7369C23.7283 20.7369 24.0467 20.8294 24.3212 21.0036C24.5997 21.1723 24.8261 21.4148 24.9752 21.7043C25.1243 21.9938 25.1902 22.319 25.1657 22.6437C25.1657 22.8579 24.9393 23.1088 25.0984 23.2557C25.2575 23.4026 25.5146 23.3169 25.7104 23.3414C26.8855 23.4379 28.0491 23.6428 29.1865 23.9534C29.4081 24.0141 29.6233 24.0961 29.8291 24.1982C30.2637 24.4246 30.2637 24.7061 29.8291 24.9571C29.4915 25.14 29.1252 25.2642 28.7459 25.3243C27.5963 25.5269 26.4355 25.6597 25.2698 25.7221C24.5293 25.7771 23.7888 25.82 23.0482 25.8873C22.6137 25.924 22.5954 25.9791 22.7422 26.3953C23.3018 27.8519 24.1324 29.1893 25.1902 30.3365C25.2405 30.3929 25.2875 30.4522 25.331 30.514C25.4326 30.6218 25.4993 30.7578 25.5222 30.9041C25.5452 31.0505 25.5233 31.2004 25.4595 31.3341C25.3841 31.47 25.2699 31.5804 25.1314 31.6513C24.993 31.7221 24.8367 31.7502 24.6823 31.7319H15.6247C15.466 31.7531 15.3045 31.7258 15.1615 31.6538C15.0184 31.5817 14.9005 31.4681 14.823 31.3279C14.7577 31.1868 14.7386 31.0286 14.7682 30.8759C14.7979 30.7232 14.8749 30.5837 14.9883 30.4773C15.4167 29.902 15.9063 29.3757 16.3041 28.7698C16.799 28.0003 17.2094 27.1795 17.528 26.3218C17.6321 26.0403 17.5709 25.9546 17.2955 25.9363L14.8108 25.7037C13.5174 25.6518 12.2322 25.4735 10.9736 25.1713C10.8028 25.1235 10.6369 25.06 10.4779 24.9815C10.3065 24.8897 10.129 24.7918 10.1229 24.5654C10.1168 24.339 10.3126 24.2472 10.484 24.1554C10.922 23.9467 11.3878 23.8024 11.8671 23.727C12.8771 23.5251 13.8993 23.3902 14.9271 23.323C15.0862 23.323 15.2881 23.323 15.2147 23.0599C15.1041 22.7056 15.1124 22.3248 15.2384 21.9756C15.3644 21.6265 15.601 21.3281 15.9124 21.126C16.2133 20.9 16.5795 20.7779 16.9558 20.7779C17.3322 20.7779 17.6983 20.9 17.9993 21.126H18.0972C18.1322 20.7628 18.0926 20.3962 17.9809 20.0489C17.8112 19.3899 17.6069 18.7403 17.3689 18.1027C17.222 17.6682 17.1914 17.6621 16.8793 17.9926C16.5587 18.3725 16.1231 18.6377 15.6384 18.7481C15.1537 18.8586 14.6462 18.8082 14.1927 18.6046C13.7449 18.4096 13.3671 18.0831 13.1094 17.6682C13.0903 17.6263 13.0631 17.5885 13.0293 17.5572C12.9955 17.5258 12.9559 17.5015 12.9126 17.4855C12.8694 17.4696 12.8234 17.4624 12.7773 17.4643C12.7313 17.4663 12.6861 17.4773 12.6443 17.4968C12.0988 17.6841 11.5101 17.7055 10.9524 17.5584C10.3948 17.4114 9.89317 17.1025 9.51091 16.6707C9.10342 16.2641 8.82727 15.7447 8.71816 15.1796C8.60906 14.6144 8.67202 14.0295 8.89891 13.5005C9.10198 12.9544 9.45942 12.4791 9.92773 12.1325C10.396 11.7859 10.955 11.5829 11.5366 11.5483C12.0893 11.5011 12.6435 11.6205 13.1278 11.891C13.238 11.946 13.3298 12.0317 13.446 11.8604C14.0028 11.0664 14.7142 10.3931 15.5377 9.88091C16.3612 9.36875 17.2796 9.02828 18.238 8.87995C19.4173 8.61605 20.6377 8.59166 21.8267 8.80822C23.0156 9.02478 24.149 9.47788 25.1596 10.1407C25.821 10.5646 26.3894 11.1184 26.8304 11.7686C26.9528 11.9522 27.0323 11.995 27.2465 11.891C27.6939 11.6537 28.1931 11.5312 28.6995 11.5343C29.2058 11.5375 29.7035 11.6663 30.1478 11.9091C30.5922 12.152 30.9693 12.5013 31.2454 12.9258C31.5215 13.3502 31.6879 13.8366 31.7298 14.3412C31.7717 14.8459 31.6877 15.353 31.4853 15.8172C31.2829 16.2813 30.9685 16.688 30.5703 17.0008C30.172 17.3136 29.7024 17.5226 29.2035 17.6092C28.7046 17.6957 28.192 17.6571 27.7116 17.4968C27.6245 17.4559 27.5249 17.4503 27.4336 17.4811C27.3424 17.5119 27.2666 17.5767 27.222 17.6621C26.9187 18.1694 26.4348 18.5434 25.8673 18.7091C25.2999 18.8748 24.6908 18.82 24.1621 18.5556C23.755 18.3259 23.3973 18.0181 23.1094 17.6498V17.6498Z" fill="white"/>
</svg>
