<svg width="40" height="40" viewBox="0 0 40 40" fill="none" xmlns="http://www.w3.org/2000/svg">
<path d="M24.7484 16.1557C24.065 17.8039 23.5702 19.5241 23.2736 21.2836C23.2736 21.3993 23.2158 21.5535 23.3411 21.6113C23.4664 21.6691 23.6303 21.5149 23.7652 21.4378C24.1976 21.1635 24.699 21.0179 25.2111 21.0179C25.7231 21.0179 26.2245 21.1635 26.6569 21.4378C27.0956 21.7035 27.4521 22.0855 27.6869 22.5415C27.9217 22.9975 28.0256 23.5096 27.9871 24.021C27.9871 24.3584 27.6304 24.7536 27.881 24.9849C28.1317 25.2163 28.5365 25.0813 28.8449 25.1199C30.6957 25.2719 32.5284 25.5946 34.3198 26.0838C34.6688 26.1793 35.0078 26.3085 35.3319 26.4693C36.0163 26.826 36.0163 27.2694 35.3319 27.6646C34.8002 27.9527 34.2232 28.1483 33.6258 28.2429C31.8152 28.5621 29.9869 28.7713 28.1509 28.8694C26.9846 28.9562 25.8183 29.0236 24.652 29.1297C23.9676 29.1875 23.9387 29.2743 24.1701 29.9297C25.0513 32.224 26.3596 34.3303 28.0256 36.1372C28.1048 36.2261 28.1788 36.3194 28.2473 36.4167C28.4074 36.5865 28.5124 36.8007 28.5485 37.0312C28.5846 37.2617 28.5502 37.4977 28.4497 37.7083C28.3309 37.9224 28.151 38.0964 27.933 38.2079C27.7151 38.3195 27.4688 38.3637 27.2256 38.3348H12.96C12.7099 38.3682 12.4556 38.3254 12.2303 38.2119C12.005 38.0984 11.8193 37.9195 11.6973 37.6987C11.5945 37.4763 11.5643 37.2272 11.611 36.9867C11.6577 36.7462 11.7789 36.5266 11.9575 36.3589C12.6323 35.4528 13.4034 34.6239 14.0299 33.6696C14.8095 32.4576 15.4558 31.1649 15.9577 29.814C16.1216 29.3706 16.0252 29.2357 15.5914 29.2068L11.678 28.8405C9.64094 28.7588 7.61676 28.4779 5.6344 28.0019C5.36545 27.9268 5.10407 27.8267 4.85365 27.7031C4.58376 27.5585 4.30423 27.4043 4.29459 27.0477C4.28496 26.691 4.5934 26.5464 4.86329 26.4019C5.55314 26.0732 6.28685 25.846 7.04169 25.7271C8.63242 25.4092 10.2424 25.1967 11.8611 25.091C12.1118 25.091 12.4298 25.091 12.3142 24.6765C12.14 24.1184 12.1531 23.5187 12.3515 22.9688C12.5499 22.4189 12.9227 21.9489 13.413 21.6306C13.887 21.2748 14.4637 21.0824 15.0565 21.0824C15.6492 21.0824 16.2259 21.2748 16.6999 21.6306H16.8541C16.9092 21.0585 16.8468 20.4813 16.671 19.9341C16.4037 18.8962 16.0819 17.8731 15.7071 16.869C15.4757 16.1846 15.4276 16.175 14.936 16.6955C14.431 17.2939 13.7449 17.7116 12.9815 17.8855C12.2181 18.0594 11.4188 17.98 10.7045 17.6594C9.99925 17.3524 9.40418 16.838 8.99839 16.1846C8.96828 16.1185 8.92539 16.0591 8.87218 16.0097C8.81897 15.9604 8.7565 15.922 8.68838 15.8969C8.62027 15.8718 8.54785 15.8605 8.47532 15.8635C8.4028 15.8666 8.33159 15.884 8.26583 15.9147C7.40668 16.2096 6.47945 16.2433 5.60113 16.0117C4.72281 15.7801 3.93277 15.2936 3.3307 14.6135C2.68891 13.9732 2.25397 13.1551 2.08213 12.265C1.91029 11.3749 2.00946 10.4536 2.36681 9.62049C2.68664 8.76039 3.24961 8.01182 3.9872 7.46591C4.72479 6.91999 5.60517 6.60027 6.52119 6.54568C7.39171 6.47139 8.26455 6.65939 9.02731 7.08546C9.20081 7.17221 9.34539 7.30715 9.52853 7.03726C10.4054 5.78671 11.526 4.72628 12.8229 3.91962C14.1198 3.11296 15.5664 2.57672 17.0758 2.34311C18.9333 1.92746 20.8554 1.88904 22.728 2.23012C24.6007 2.5712 26.3858 3.28484 27.9774 4.32872C29.0191 4.9964 29.9143 5.86868 30.6089 6.89268C30.8016 7.18184 30.9269 7.24932 31.2643 7.08546C31.9689 6.71176 32.7552 6.51875 33.5527 6.52374C34.3502 6.52873 35.134 6.73156 35.8338 7.11404C36.5337 7.49652 37.1277 8.0467 37.5625 8.71525C37.9974 9.38379 38.2595 10.1498 38.3255 10.9446C38.3914 11.7394 38.2591 12.5382 37.9404 13.2692C37.6216 14.0003 37.1264 14.6409 36.4992 15.1334C35.872 15.626 35.1323 15.9553 34.3465 16.0916C33.5607 16.228 32.7534 16.1672 31.9969 15.9147C31.8596 15.8503 31.7027 15.8414 31.559 15.8899C31.4153 15.9384 31.2959 16.0405 31.2257 16.175C30.7479 16.974 29.9858 17.5631 29.0921 17.824C28.1984 18.085 27.239 17.9986 26.4063 17.5822C25.7651 17.2205 25.2017 16.7357 24.7484 16.1557V16.1557Z" fill="#D9D9D9"/>
</svg>
