<svg width="35" height="35" viewBox="0 0 35 35" fill="none" xmlns="http://www.w3.org/2000/svg">
<path fill-rule="evenodd" clip-rule="evenodd" d="M34.13 17.565C34.13 26.7136 26.7136 34.13 17.565 34.13C8.4164 34.13 1 26.7136 1 17.565C1 8.4164 8.4164 1 17.565 1C26.7136 1 34.13 8.4164 34.13 17.565ZM19.3644 18.3165C19.5204 17.3912 19.7805 16.4866 20.1399 15.6199C20.3783 15.9249 20.6746 16.1798 21.0118 16.3701C21.4497 16.589 21.9542 16.6344 22.4242 16.4972C22.8941 16.36 23.2949 16.0502 23.5462 15.63C23.5831 15.5593 23.6459 15.5056 23.7215 15.4801C23.797 15.4546 23.8795 15.4593 23.9517 15.4931C24.3495 15.6259 24.7741 15.6579 25.1873 15.5862C25.6006 15.5145 25.9895 15.3413 26.3194 15.0823C26.6492 14.8233 26.9096 14.4864 27.0772 14.102C27.2449 13.7175 27.3144 13.2975 27.2798 12.8795C27.2451 12.4615 27.1072 12.0587 26.8785 11.7071C26.6499 11.3556 26.3375 11.0662 25.9695 10.8651C25.6015 10.664 25.1893 10.5573 24.7699 10.5547C24.3505 10.5521 23.937 10.6536 23.5665 10.8501C23.3891 10.9363 23.3232 10.9008 23.2218 10.7487C22.8566 10.2102 22.3858 9.75151 21.838 9.40039C21.001 8.85144 20.0623 8.47616 19.0775 8.2968C18.0927 8.11743 17.082 8.13763 16.1051 8.35621C15.3114 8.47906 14.5507 8.76106 13.8687 9.18526C13.1866 9.60945 12.5974 10.1671 12.1362 10.8247C12.0525 10.9481 11.9841 10.9106 11.9077 10.8687C11.8962 10.8624 11.8846 10.856 11.8727 10.8501C11.4715 10.626 11.0125 10.5272 10.5548 10.5662C10.073 10.5949 9.61007 10.7631 9.2222 11.0502C8.83432 11.3372 8.53827 11.7309 8.37008 12.1832C8.18216 12.6213 8.13001 13.1058 8.22038 13.5738C8.31074 14.0419 8.53946 14.4721 8.87696 14.8089C9.19358 15.1665 9.60904 15.4224 10.0709 15.5442C10.5328 15.666 11.0204 15.6482 11.4722 15.4931C11.5068 15.477 11.5442 15.4678 11.5824 15.4662C11.6205 15.4646 11.6586 15.4706 11.6944 15.4838C11.7302 15.497 11.7631 15.5171 11.7911 15.5431C11.8191 15.5691 11.8416 15.6003 11.8574 15.6351C12.0708 15.9787 12.3838 16.2492 12.7546 16.4106C13.1303 16.5792 13.5506 16.621 13.9521 16.5295C14.3535 16.4381 14.7143 16.2184 14.9799 15.9037C15.2384 15.63 15.2637 15.6351 15.3854 15.995C15.5825 16.523 15.7517 17.061 15.8922 17.6069C15.9847 17.8946 16.0175 18.1981 15.9886 18.499H15.9075C15.6582 18.3118 15.3549 18.2107 15.0432 18.2107C14.7315 18.2107 14.4282 18.3118 14.179 18.499C13.9211 18.6664 13.7251 18.9135 13.6208 19.2027C13.5164 19.4919 13.5095 19.8073 13.6011 20.1007C13.662 20.3187 13.4947 20.3187 13.3629 20.3187C12.5116 20.3743 11.665 20.4861 10.8285 20.6532C10.4315 20.7157 10.0457 20.8352 9.68291 21.008C9.67566 21.0119 9.66837 21.0158 9.66104 21.0197C9.52486 21.0921 9.37904 21.1697 9.38385 21.3477C9.38892 21.5352 9.53591 21.6163 9.67784 21.6923C9.80953 21.7573 9.94698 21.8099 10.0884 21.8495C11.1309 22.0998 12.1953 22.2475 13.2666 22.2905L15.3245 22.4831C15.5526 22.4983 15.6033 22.5693 15.5172 22.8024C15.2532 23.5128 14.9133 24.1926 14.5034 24.83C14.3032 25.1349 14.0748 25.4156 13.8469 25.6957C13.6997 25.8766 13.5528 26.0573 13.4136 26.2442C13.3197 26.3324 13.2559 26.4479 13.2313 26.5743C13.2068 26.7008 13.2226 26.8318 13.2767 26.9487C13.3409 27.0649 13.4386 27.1589 13.557 27.2186C13.6755 27.2783 13.8092 27.3008 13.9407 27.2833H21.4426C21.5705 27.2984 21.7 27.2752 21.8147 27.2165C21.9293 27.1579 22.0239 27.0664 22.0864 26.9538C22.1392 26.8431 22.1573 26.7189 22.1383 26.5977C22.1193 26.4765 22.0641 26.3638 21.9799 26.2746C21.9439 26.2234 21.905 26.1743 21.8633 26.1276C20.9872 25.1774 20.2992 24.0697 19.8358 22.8632C19.7142 22.5186 19.7294 22.4729 20.0892 22.4425C20.4981 22.4054 20.907 22.3772 21.3159 22.349C21.5203 22.335 21.7248 22.3209 21.9292 22.3057C22.8947 22.2541 23.8562 22.144 24.8083 21.9762C25.1225 21.9265 25.4259 21.8236 25.7055 21.6721C26.0654 21.4642 26.0654 21.2311 25.7055 21.0435C25.5351 20.9589 25.3568 20.891 25.1733 20.8408C24.2313 20.5835 23.2675 20.4139 22.2942 20.3339C22.2423 20.3274 22.1852 20.3303 22.1273 20.3332C22.0041 20.3393 21.8769 20.3457 21.7873 20.2629C21.7057 20.1875 21.7466 20.0791 21.7896 19.9653C21.8159 19.8954 21.8431 19.8235 21.8431 19.756C21.8633 19.4871 21.8087 19.2178 21.6852 18.978C21.5618 18.7382 21.3743 18.5373 21.1436 18.3976C20.9162 18.2533 20.6525 18.1768 20.3832 18.1768C20.114 18.1768 19.8503 18.2533 19.6229 18.3976C19.6061 18.4072 19.5885 18.419 19.5705 18.4312C19.5123 18.4703 19.4502 18.5121 19.3999 18.4888C19.3496 18.4656 19.3554 18.4129 19.361 18.3622C19.3627 18.3465 19.3644 18.3309 19.3644 18.3165Z" fill="white"/>
</svg>
